<svg width="33" height="32" viewBox="0 0 33 32" fill="none" xmlns="http://www.w3.org/2000/svg">
<path fill-rule="evenodd" clip-rule="evenodd" d="M16.25 0C7.41344 0 0.25 7.16344 0.25 16C0.25 24.8366 7.41344 32 16.25 32C25.0866 32 32.25 24.8366 32.25 16C32.25 7.16344 25.0866 0 16.25 0ZM15.8044 13.5586L15.7708 13.005C15.6701 11.5701 16.5542 10.2594 17.9532 9.75098C18.468 9.5702 19.3409 9.5476 19.9117 9.70578C20.1356 9.77357 20.5608 9.99955 20.863 10.2029L21.4114 10.5758L22.0158 10.3837C22.3515 10.282 22.7992 10.1125 23.0006 9.99955C23.1909 9.89786 23.3588 9.84136 23.3588 9.87526C23.3588 10.0673 22.9447 10.7227 22.5977 11.0842C22.1277 11.5927 22.262 11.6379 23.2133 11.2989C23.784 11.1068 23.7952 11.1068 23.6833 11.3215C23.6162 11.4345 23.2692 11.8299 22.8999 12.1915C22.2732 12.8129 22.2396 12.8807 22.2396 13.4005C22.2396 14.2027 21.8591 15.8749 21.4785 16.7901C20.7735 18.5075 19.2626 20.2814 17.7517 21.174C15.6253 22.4281 12.7938 22.7445 10.41 22.0101C9.61538 21.7615 8.25 21.1288 8.25 21.0158C8.25 20.9819 8.66409 20.9367 9.16772 20.9254C10.2197 20.9028 11.2718 20.609 12.1671 20.0893L12.7714 19.7277L12.0775 19.4905C11.0927 19.1515 10.2085 18.3719 9.98471 17.6375C9.91756 17.4002 9.93994 17.3889 10.5667 17.3889L11.2158 17.3776L10.6674 17.1177C10.0183 16.7901 9.42513 16.2364 9.13414 15.6715C8.9215 15.2647 8.6529 14.2366 8.73124 14.1575C8.75362 14.1236 8.98865 14.1914 9.25725 14.2818C10.0295 14.5642 10.1302 14.4964 9.68253 14.0219C8.84316 13.1632 8.58575 11.8864 8.98865 10.6775L9.17891 10.1351L9.91756 10.8695C11.4284 12.3497 13.2079 13.231 15.2448 13.4908L15.8044 13.5586Z" fill="#0088cc"/>
</svg>
