<svg width="424" height="180" viewBox="0 0 424 180" fill="none" xmlns="http://www.w3.org/2000/svg">
<rect width="424" height="180" fill="#1C1937"/>
<path d="M127.637 94.521C127.916 94.521 128.163 94.6287 128.378 94.844L130.392 97.029C129.277 98.4097 127.903 99.4673 126.269 100.202C124.648 100.937 122.697 101.304 120.417 101.304C118.378 101.304 116.541 100.956 114.907 100.259C113.286 99.5623 111.899 98.5933 110.746 97.352C109.593 96.1107 108.707 94.6287 108.086 92.906C107.478 91.1833 107.174 89.3023 107.174 87.263C107.174 85.1983 107.503 83.311 108.162 81.601C108.821 79.8783 109.745 78.3963 110.936 77.155C112.139 75.9137 113.571 74.951 115.23 74.267C116.889 73.5703 118.726 73.222 120.74 73.222C122.741 73.222 124.515 73.5513 126.06 74.21C127.618 74.8687 128.942 75.73 130.031 76.794L128.321 79.169C128.22 79.321 128.087 79.454 127.922 79.568C127.77 79.682 127.555 79.739 127.276 79.739C127.086 79.739 126.89 79.6883 126.687 79.587C126.484 79.473 126.263 79.34 126.022 79.188C125.781 79.0233 125.503 78.846 125.186 78.656C124.869 78.466 124.502 78.295 124.084 78.143C123.666 77.9783 123.178 77.8453 122.621 77.744C122.076 77.63 121.443 77.573 120.721 77.573C119.492 77.573 118.365 77.7947 117.339 78.238C116.326 78.6687 115.452 79.302 114.717 80.138C113.982 80.9613 113.412 81.9747 113.007 83.178C112.602 84.3687 112.399 85.7303 112.399 87.263C112.399 88.8083 112.614 90.1827 113.045 91.386C113.488 92.5893 114.084 93.6027 114.831 94.426C115.578 95.2493 116.459 95.8827 117.472 96.326C118.485 96.7567 119.575 96.972 120.74 96.972C121.437 96.972 122.064 96.934 122.621 96.858C123.191 96.782 123.71 96.6617 124.179 96.497C124.66 96.3323 125.11 96.1233 125.528 95.87C125.959 95.604 126.383 95.281 126.801 94.901C126.928 94.787 127.061 94.6983 127.2 94.635C127.339 94.559 127.485 94.521 127.637 94.521ZM141.37 81.202C142.814 81.202 144.125 81.4363 145.303 81.905C146.493 82.3737 147.507 83.0387 148.343 83.9C149.191 84.7613 149.844 85.8127 150.3 87.054C150.756 88.2953 150.984 89.6823 150.984 91.215C150.984 92.7603 150.756 94.1537 150.3 95.395C149.844 96.6363 149.191 97.694 148.343 98.568C147.507 99.442 146.493 100.113 145.303 100.582C144.125 101.051 142.814 101.285 141.37 101.285C139.913 101.285 138.589 101.051 137.399 100.582C136.208 100.113 135.188 99.442 134.34 98.568C133.504 97.694 132.851 96.6363 132.383 95.395C131.927 94.1537 131.699 92.7603 131.699 91.215C131.699 89.6823 131.927 88.2953 132.383 87.054C132.851 85.8127 133.504 84.7613 134.34 83.9C135.188 83.0387 136.208 82.3737 137.399 81.905C138.589 81.4363 139.913 81.202 141.37 81.202ZM141.37 97.675C142.991 97.675 144.188 97.1303 144.961 96.041C145.746 94.9517 146.139 93.3557 146.139 91.253C146.139 89.1503 145.746 87.548 144.961 86.446C144.188 85.344 142.991 84.793 141.37 84.793C139.723 84.793 138.501 85.3503 137.703 86.465C136.917 87.567 136.525 89.163 136.525 91.253C136.525 93.343 136.917 94.939 137.703 96.041C138.501 97.1303 139.723 97.675 141.37 97.675ZM154.564 101V81.506H157.433C158.041 81.506 158.44 81.791 158.63 82.361L158.934 83.805C159.276 83.425 159.631 83.0767 159.998 82.76C160.378 82.4433 160.777 82.171 161.195 81.943C161.626 81.715 162.082 81.5377 162.563 81.411C163.057 81.2717 163.595 81.202 164.178 81.202C165.407 81.202 166.414 81.5377 167.199 82.209C167.997 82.8677 168.592 83.748 168.985 84.85C169.289 84.204 169.669 83.653 170.125 83.197C170.581 82.7283 171.081 82.3483 171.626 82.057C172.171 81.7657 172.747 81.5503 173.355 81.411C173.976 81.2717 174.596 81.202 175.217 81.202C176.294 81.202 177.25 81.3667 178.086 81.696C178.922 82.0253 179.625 82.5067 180.195 83.14C180.765 83.7733 181.196 84.546 181.487 85.458C181.791 86.37 181.943 87.415 181.943 88.593V101H177.25V88.593C177.25 87.3517 176.978 86.4207 176.433 85.8C175.888 85.1667 175.09 84.85 174.039 84.85C173.558 84.85 173.108 84.9323 172.69 85.097C172.285 85.2617 171.924 85.5023 171.607 85.819C171.303 86.123 171.062 86.5093 170.885 86.978C170.708 87.4467 170.619 87.985 170.619 88.593V101H165.907V88.593C165.907 87.2883 165.641 86.3383 165.109 85.743C164.59 85.1477 163.823 84.85 162.81 84.85C162.126 84.85 161.486 85.021 160.891 85.363C160.308 85.6923 159.764 86.1483 159.257 86.731V101H154.564ZM191.268 81.506V101H186.556V81.506H191.268ZM191.914 75.825C191.914 76.2303 191.832 76.6103 191.667 76.965C191.502 77.3197 191.281 77.63 191.002 77.896C190.736 78.162 190.419 78.3773 190.052 78.542C189.685 78.694 189.292 78.77 188.874 78.77C188.469 78.77 188.082 78.694 187.715 78.542C187.36 78.3773 187.05 78.162 186.784 77.896C186.518 77.63 186.303 77.3197 186.138 76.965C185.986 76.6103 185.91 76.2303 185.91 75.825C185.91 75.407 185.986 75.0143 186.138 74.647C186.303 74.2797 186.518 73.963 186.784 73.697C187.05 73.431 187.36 73.222 187.715 73.07C188.082 72.9053 188.469 72.823 188.874 72.823C189.292 72.823 189.685 72.9053 190.052 73.07C190.419 73.222 190.736 73.431 191.002 73.697C191.281 73.963 191.502 74.2797 191.667 74.647C191.832 75.0143 191.914 75.407 191.914 75.825ZM200.441 83.9C200.834 83.5073 201.246 83.1463 201.676 82.817C202.12 82.475 202.582 82.19 203.063 81.962C203.557 81.7213 204.083 81.5377 204.64 81.411C205.198 81.2717 205.806 81.202 206.464 81.202C207.528 81.202 208.472 81.3857 209.295 81.753C210.119 82.1077 210.803 82.6143 211.347 83.273C211.905 83.919 212.323 84.698 212.601 85.61C212.893 86.5093 213.038 87.5037 213.038 88.593V101H208.345V88.593C208.345 87.4023 208.073 86.484 207.528 85.838C206.984 85.1793 206.154 84.85 205.039 84.85C204.229 84.85 203.469 85.0337 202.759 85.401C202.05 85.7683 201.379 86.2687 200.745 86.902V101H196.052V81.506H198.921C199.529 81.506 199.928 81.791 200.118 82.361L200.441 83.9ZM224.627 90.778C225.209 90.778 225.716 90.702 226.147 90.55C226.577 90.3853 226.932 90.1637 227.211 89.885C227.502 89.6063 227.717 89.2707 227.857 88.878C228.009 88.4853 228.085 88.0547 228.085 87.586C228.085 86.6233 227.793 85.8633 227.211 85.306C226.641 84.736 225.779 84.451 224.627 84.451C223.474 84.451 222.606 84.736 222.024 85.306C221.454 85.8633 221.169 86.6233 221.169 87.586C221.169 88.042 221.238 88.4663 221.378 88.859C221.53 89.2517 221.745 89.5937 222.024 89.885C222.315 90.1637 222.676 90.3853 223.107 90.55C223.55 90.702 224.057 90.778 224.627 90.778ZM229.928 101.874C229.928 101.494 229.814 101.184 229.586 100.943C229.358 100.702 229.047 100.519 228.655 100.392C228.262 100.253 227.8 100.151 227.268 100.088C226.748 100.025 226.191 99.9803 225.596 99.955C225.013 99.917 224.405 99.8853 223.772 99.86C223.151 99.8347 222.543 99.784 221.948 99.708C221.428 99.9993 221.004 100.341 220.675 100.734C220.358 101.127 220.2 101.583 220.2 102.102C220.2 102.444 220.282 102.761 220.447 103.052C220.624 103.356 220.896 103.616 221.264 103.831C221.644 104.046 222.131 104.211 222.727 104.325C223.322 104.452 224.05 104.515 224.912 104.515C225.786 104.515 226.539 104.445 227.173 104.306C227.806 104.179 228.325 103.996 228.731 103.755C229.149 103.527 229.453 103.248 229.643 102.919C229.833 102.602 229.928 102.254 229.928 101.874ZM234.602 82.171V83.919C234.602 84.4763 234.266 84.8183 233.595 84.945L231.847 85.268C232.113 85.9393 232.246 86.674 232.246 87.472C232.246 88.4347 232.049 89.3087 231.657 90.094C231.277 90.8667 230.745 91.5253 230.061 92.07C229.377 92.6147 228.566 93.039 227.629 93.343C226.704 93.6343 225.703 93.78 224.627 93.78C224.247 93.78 223.879 93.761 223.525 93.723C223.17 93.685 222.822 93.6343 222.48 93.571C221.872 93.9383 221.568 94.35 221.568 94.806C221.568 95.1987 221.745 95.49 222.1 95.68C222.467 95.8573 222.948 95.984 223.544 96.06C224.139 96.136 224.817 96.1867 225.577 96.212C226.337 96.2247 227.116 96.2627 227.914 96.326C228.712 96.3893 229.491 96.5033 230.251 96.668C231.011 96.82 231.688 97.067 232.284 97.409C232.879 97.751 233.354 98.2197 233.709 98.815C234.076 99.3977 234.26 100.151 234.26 101.076C234.26 101.937 234.044 102.773 233.614 103.584C233.196 104.395 232.581 105.117 231.771 105.75C230.973 106.383 229.985 106.89 228.807 107.27C227.641 107.663 226.311 107.859 224.817 107.859C223.347 107.859 222.068 107.713 220.979 107.422C219.889 107.143 218.984 106.763 218.262 106.282C217.54 105.813 217.001 105.269 216.647 104.648C216.292 104.027 216.115 103.381 216.115 102.71C216.115 101.798 216.387 101.038 216.932 100.43C217.489 99.8093 218.249 99.3153 219.212 98.948C218.692 98.682 218.281 98.3273 217.977 97.884C217.673 97.4407 217.521 96.858 217.521 96.136C217.521 95.8447 217.571 95.547 217.673 95.243C217.787 94.9263 217.945 94.616 218.148 94.312C218.363 94.008 218.629 93.723 218.946 93.457C219.262 93.1783 219.636 92.9313 220.067 92.716C219.079 92.184 218.3 91.4747 217.73 90.588C217.172 89.7013 216.894 88.6627 216.894 87.472C216.894 86.5093 217.084 85.6417 217.464 84.869C217.856 84.0837 218.395 83.4187 219.079 82.874C219.775 82.3167 220.592 81.8923 221.53 81.601C222.48 81.3097 223.512 81.164 224.627 81.164C225.463 81.164 226.248 81.2527 226.983 81.43C227.717 81.5947 228.389 81.8417 228.997 82.171H234.602ZM258.712 85.306C258.585 85.5087 258.452 85.6543 258.313 85.743C258.174 85.819 257.996 85.857 257.781 85.857C257.553 85.857 257.306 85.7937 257.04 85.667C256.787 85.5403 256.489 85.401 256.147 85.249C255.805 85.0843 255.412 84.9387 254.969 84.812C254.538 84.6853 254.025 84.622 253.43 84.622C252.505 84.622 251.777 84.8183 251.245 85.211C250.726 85.6037 250.466 86.1167 250.466 86.75C250.466 87.168 250.599 87.5227 250.865 87.814C251.144 88.0927 251.505 88.3397 251.948 88.555C252.404 88.7703 252.917 88.9667 253.487 89.144C254.057 89.3087 254.633 89.4923 255.216 89.695C255.811 89.8977 256.394 90.132 256.964 90.398C257.534 90.6513 258.041 90.9807 258.484 91.386C258.94 91.7787 259.301 92.2537 259.567 92.811C259.846 93.3683 259.985 94.0397 259.985 94.825C259.985 95.7623 259.814 96.63 259.472 97.428C259.143 98.2133 258.649 98.8973 257.99 99.48C257.331 100.05 256.514 100.5 255.539 100.829C254.576 101.146 253.462 101.304 252.195 101.304C251.524 101.304 250.865 101.241 250.219 101.114C249.586 101 248.971 100.835 248.376 100.62C247.793 100.405 247.249 100.151 246.742 99.86C246.248 99.5687 245.811 99.252 245.431 98.91L246.514 97.124C246.653 96.9087 246.818 96.744 247.008 96.63C247.198 96.516 247.439 96.459 247.73 96.459C248.021 96.459 248.294 96.5413 248.547 96.706C248.813 96.8707 249.117 97.048 249.459 97.238C249.801 97.428 250.2 97.6053 250.656 97.77C251.125 97.9347 251.714 98.017 252.423 98.017C252.98 98.017 253.455 97.9537 253.848 97.827C254.253 97.6877 254.583 97.5103 254.836 97.295C255.102 97.0797 255.292 96.8327 255.406 96.554C255.533 96.2627 255.596 95.965 255.596 95.661C255.596 95.205 255.457 94.8313 255.178 94.54C254.912 94.2487 254.551 93.9953 254.095 93.78C253.652 93.5647 253.139 93.3747 252.556 93.21C251.986 93.0327 251.397 92.8427 250.789 92.64C250.194 92.4373 249.605 92.203 249.022 91.937C248.452 91.6583 247.939 91.31 247.483 90.892C247.04 90.474 246.679 89.961 246.4 89.353C246.134 88.745 246.001 88.0103 246.001 87.149C246.001 86.351 246.159 85.591 246.476 84.869C246.793 84.147 247.255 83.52 247.863 82.988C248.484 82.4433 249.25 82.0127 250.162 81.696C251.087 81.3667 252.151 81.202 253.354 81.202C254.697 81.202 255.919 81.4237 257.021 81.867C258.123 82.3103 259.041 82.893 259.776 83.615L258.712 85.306ZM272.143 81.202C273.587 81.202 274.898 81.4363 276.076 81.905C277.267 82.3737 278.28 83.0387 279.116 83.9C279.965 84.7613 280.617 85.8127 281.073 87.054C281.529 88.2953 281.757 89.6823 281.757 91.215C281.757 92.7603 281.529 94.1537 281.073 95.395C280.617 96.6363 279.965 97.694 279.116 98.568C278.28 99.442 277.267 100.113 276.076 100.582C274.898 101.051 273.587 101.285 272.143 101.285C270.687 101.285 269.363 101.051 268.172 100.582C266.982 100.113 265.962 99.442 265.113 98.568C264.277 97.694 263.625 96.6363 263.156 95.395C262.7 94.1537 262.472 92.7603 262.472 91.215C262.472 89.6823 262.7 88.2953 263.156 87.054C263.625 85.8127 264.277 84.7613 265.113 83.9C265.962 83.0387 266.982 82.3737 268.172 81.905C269.363 81.4363 270.687 81.202 272.143 81.202ZM272.143 97.675C273.765 97.675 274.962 97.1303 275.734 96.041C276.52 94.9517 276.912 93.3557 276.912 91.253C276.912 89.1503 276.52 87.548 275.734 86.446C274.962 85.344 273.765 84.793 272.143 84.793C270.497 84.793 269.274 85.3503 268.476 86.465C267.691 87.567 267.298 89.163 267.298 91.253C267.298 93.343 267.691 94.939 268.476 96.041C269.274 97.1303 270.497 97.675 272.143 97.675ZM293.964 81.202C295.408 81.202 296.719 81.4363 297.897 81.905C299.087 82.3737 300.101 83.0387 300.937 83.9C301.785 84.7613 302.438 85.8127 302.894 87.054C303.35 88.2953 303.578 89.6823 303.578 91.215C303.578 92.7603 303.35 94.1537 302.894 95.395C302.438 96.6363 301.785 97.694 300.937 98.568C300.101 99.442 299.087 100.113 297.897 100.582C296.719 101.051 295.408 101.285 293.964 101.285C292.507 101.285 291.183 101.051 289.993 100.582C288.802 100.113 287.782 99.442 286.934 98.568C286.098 97.694 285.445 96.6363 284.977 95.395C284.521 94.1537 284.293 92.7603 284.293 91.215C284.293 89.6823 284.521 88.2953 284.977 87.054C285.445 85.8127 286.098 84.7613 286.934 83.9C287.782 83.0387 288.802 82.3737 289.993 81.905C291.183 81.4363 292.507 81.202 293.964 81.202ZM293.964 97.675C295.585 97.675 296.782 97.1303 297.555 96.041C298.34 94.9517 298.733 93.3557 298.733 91.253C298.733 89.1503 298.34 87.548 297.555 86.446C296.782 85.344 295.585 84.793 293.964 84.793C292.317 84.793 291.095 85.3503 290.297 86.465C289.511 87.567 289.119 89.163 289.119 91.253C289.119 93.343 289.511 94.939 290.297 96.041C291.095 97.1303 292.317 97.675 293.964 97.675ZM311.547 83.9C311.94 83.5073 312.351 83.1463 312.782 82.817C313.225 82.475 313.688 82.19 314.169 81.962C314.663 81.7213 315.189 81.5377 315.746 81.411C316.303 81.2717 316.911 81.202 317.57 81.202C318.634 81.202 319.578 81.3857 320.401 81.753C321.224 82.1077 321.908 82.6143 322.453 83.273C323.01 83.919 323.428 84.698 323.707 85.61C323.998 86.5093 324.144 87.5037 324.144 88.593V101H319.451V88.593C319.451 87.4023 319.179 86.484 318.634 85.838C318.089 85.1793 317.26 84.85 316.145 84.85C315.334 84.85 314.574 85.0337 313.865 85.401C313.156 85.7683 312.484 86.2687 311.851 86.902V101H307.158V81.506H310.027C310.635 81.506 311.034 81.791 311.224 82.361L311.547 83.9Z" fill="#0C0A21"/>
</svg>
