<svg width="24" height="22" viewBox="0 0 24 22" fill="none" xmlns="http://www.w3.org/2000/svg">
<path fill-rule="evenodd" clip-rule="evenodd" d="M7.50386 0.131757C7.79416 -0.0341284 8.14816 -0.0439541 8.44721 0.105573L15.9685 3.86623L22.5039 0.131757C22.8134 -0.0451016 23.1936 -0.0438317 23.5019 0.13509C23.8102 0.314012 24 0.64353 24 1V17C24 17.3589 23.8077 17.6902 23.4961 17.8682L16.4961 21.8682C16.2058 22.0341 15.8518 22.044 15.5528 21.8944L8.03147 18.1338L1.49614 21.8682C1.18664 22.0451 0.806388 22.0438 0.498073 21.8649C0.189758 21.686 0 21.3565 0 21V5C0 4.64114 0.192286 4.3098 0.503861 4.13176L7.50386 0.131757ZM8.03147 2.13377L2 5.58032V19.2768L7.50386 16.1318C7.79416 15.9659 8.14816 15.956 8.44721 16.1056L15.9685 19.8662L22 16.4197V2.72318L16.4961 5.86824C16.2058 6.03413 15.8518 6.04395 15.5528 5.89443L8.03147 2.13377Z" fill="#9B8BD8"/>
</svg>
