<svg width="22" height="24" viewBox="0 0 22 24" fill="none" xmlns="http://www.w3.org/2000/svg">
<path fill-rule="evenodd" clip-rule="evenodd" d="M10.5559 2.34523C10.5556 2.34538 10.5553 2.34553 10.555 2.34568L2.55726 6.34458L2.55505 6.34568C2.38844 6.42847 2.24823 6.55609 2.15019 6.7142C2.05218 6.87226 2.00018 7.05451 2.00005 7.24049C2.00005 7.24043 2.00005 7.24055 2.00005 7.24049V16.7671C1.99875 16.9535 2.04954 17.1365 2.14672 17.2955C2.24374 17.4543 2.38313 17.5828 2.5492 17.6667C2.54893 17.6666 2.54948 17.6668 2.5492 17.6667L10.5473 21.6657C10.6862 21.7352 10.8397 21.7716 10.995 21.7716C11.1504 21.7716 11.3036 21.7354 11.4425 21.6659L19.4428 17.6657L19.445 17.6646C19.6117 17.5818 19.7519 17.4542 19.8499 17.2961C19.948 17.138 19.9999 16.9557 20 16.7696V7.24068C19.9999 7.05464 19.948 6.87231 19.8499 6.7142C19.7519 6.55609 19.6117 6.42847 19.445 6.34568L19.4428 6.34458L11.445 2.34568C11.4447 2.34553 11.4445 2.34538 11.4442 2.34523C11.3061 2.27681 11.1541 2.24121 11 2.24121C10.846 2.24121 10.694 2.27681 10.5559 2.34523ZM11.89 1.45015L12.335 0.554619C11.9202 0.348483 11.4633 0.241211 11 0.241211C10.5368 0.241211 10.0799 0.348483 9.66505 0.554619L9.66284 0.555723L1.66505 4.55462C1.66464 4.55482 1.66423 4.55503 1.66381 4.55523C1.16454 4.80361 0.744363 5.18625 0.450468 5.66019C0.156331 6.13452 0.000344766 6.68149 4.85903e-05 7.23962L4.84711e-05 16.757C-0.00312172 17.3148 0.149273 17.8624 0.440154 18.3384C0.731701 18.8155 1.15077 19.2016 1.65007 19.4532L1.65283 19.4546L9.65255 23.4544C10.0693 23.663 10.529 23.7716 10.995 23.7716C11.461 23.7716 11.9206 23.663 12.3373 23.4546C12.3374 23.4545 12.3372 23.4546 12.3373 23.4546L20.335 19.4557C20.3354 19.4555 20.3357 19.4553 20.336 19.4552C20.8354 19.2068 21.2557 18.8241 21.5496 18.3501C21.8438 17.8758 21.9998 17.3288 22 16.7707V7.24015C21.9998 6.68202 21.8438 6.13451 21.5496 5.66019C21.2557 5.18626 20.8356 4.80364 20.3363 4.55526C20.3359 4.55504 20.3355 4.55483 20.335 4.55462L12.3373 0.555723L11.89 1.45015Z" fill="#D85988"/>
<path fill-rule="evenodd" clip-rule="evenodd" d="M0.425621 5.71294C0.67261 5.21896 1.27328 5.01873 1.76726 5.26572L11 9.88212L20.2328 5.26572C20.7268 5.01873 21.3275 5.21896 21.5745 5.71294C21.8215 6.20691 21.6212 6.80759 21.1273 7.05458L11.4473 11.8946C11.1657 12.0353 10.8344 12.0353 10.5528 11.8946L0.872835 7.05458C0.378856 6.80759 0.178632 6.20691 0.425621 5.71294Z" fill="#D85988"/>
<path fill-rule="evenodd" clip-rule="evenodd" d="M11 10.0001C11.5523 10.0001 12 10.4479 12 11.0001V22.7602C12 23.3124 11.5523 23.7602 11 23.7602C10.4478 23.7602 10 23.3124 10 22.7602V11.0001C10 10.4479 10.4478 10.0001 11 10.0001Z" fill="#D85988"/>
<path fill-rule="evenodd" clip-rule="evenodd" d="M5.10562 3.05294C5.35261 2.55896 5.95328 2.35873 6.44726 2.60572L16.4473 7.60572C16.9412 7.85271 17.1415 8.45338 16.8945 8.94736C16.6475 9.44134 16.0468 9.64157 15.5528 9.39458L5.55283 4.39458C5.05886 4.14759 4.85863 3.54691 5.10562 3.05294Z" fill="#D85988"/>
</svg>
