<svg width="48" height="48" viewBox="0 0 48 48" fill="none" xmlns="http://www.w3.org/2000/svg">
<path fill-rule="evenodd" clip-rule="evenodd" d="M23.1119 4.69047C23.1113 4.69077 23.1107 4.69106 23.1101 4.69136L7.11452 12.6892L7.1101 12.6914C6.77688 12.8569 6.49647 13.1122 6.30038 13.4284C6.10435 13.7445 6.00037 14.109 6.0001 14.481C6.0001 14.4809 6.0001 14.4811 6.0001 14.481V33.5342C5.9975 33.9069 6.09907 34.273 6.29344 34.591C6.48748 34.9086 6.76626 35.1656 7.09841 35.3334C7.09786 35.3331 7.09896 35.3337 7.09841 35.3334L23.0945 43.3314C23.3724 43.4705 23.6794 43.5432 23.9901 43.5432C24.3008 43.5432 24.6072 43.4708 24.8851 43.3317L40.8857 35.3314L40.8901 35.3292C41.2233 35.1637 41.5037 34.9084 41.6998 34.5922C41.8959 34.276 41.9999 33.9113 42.0001 33.5392V14.4814C41.9999 14.1093 41.8959 13.7446 41.6998 13.4284C41.5037 13.1122 41.2233 12.8569 40.8901 12.6914L40.8857 12.6892L24.8901 4.69136C24.8895 4.69106 24.8889 4.69077 24.8883 4.69047C24.6122 4.55363 24.3082 4.48242 24.0001 4.48242C23.6919 4.48242 23.388 4.55363 23.1119 4.69047ZM25.7801 2.9003L26.6701 1.10924C25.8404 0.696965 24.9266 0.482422 24.0001 0.482422C23.0736 0.482422 22.1598 0.696965 21.3301 1.10924L21.3257 1.11145L5.3301 9.10924C5.32927 9.10965 5.32845 9.11005 5.32763 9.11046C4.32907 9.60723 3.48873 10.3725 2.90094 11.3204C2.31266 12.269 2.00069 13.363 2.0001 14.4792L2.0001 33.514C1.99376 34.6296 2.29855 35.7249 2.88031 36.6768C3.4634 37.631 4.30153 38.4032 5.30015 38.9064L5.30567 38.9092L21.3051 46.9089C22.1387 47.326 23.058 47.5432 23.9901 47.5432C24.922 47.5432 25.8411 47.3261 26.6745 46.9092C26.6747 46.9091 26.6743 46.9092 26.6745 46.9092L42.6701 38.9114C42.6708 38.911 42.6714 38.9107 42.6721 38.9104C43.6708 38.4136 44.5114 37.6483 45.0993 36.7002C45.6875 35.7516 45.9995 34.6576 46.0001 33.5414V14.4803C45.9995 13.364 45.6875 12.269 45.0993 11.3204C44.5115 10.3725 43.6712 9.60728 42.6727 9.11051C42.6718 9.11009 42.6709 9.10966 42.6701 9.10924L26.6745 1.11145L25.7801 2.9003Z" fill="#D85988"/>
<path fill-rule="evenodd" clip-rule="evenodd" d="M2.85124 11.4259C3.34522 10.4379 4.54657 10.0375 5.53452 10.5314L24.0001 19.7642L42.4657 10.5314C43.4536 10.0375 44.655 10.4379 45.149 11.4259C45.6429 12.4138 45.2425 13.6152 44.2545 14.1092L24.8945 23.7892C24.3315 24.0707 23.6687 24.0707 23.1057 23.7892L3.74567 14.1092C2.75771 13.6152 2.35726 12.4138 2.85124 11.4259Z" fill="#D85988"/>
<path fill-rule="evenodd" clip-rule="evenodd" d="M24.0001 20.0003C25.1047 20.0003 26.0001 20.8957 26.0001 22.0003V45.5203C26.0001 46.6249 25.1047 47.5203 24.0001 47.5203C22.8955 47.5203 22.0001 46.6249 22.0001 45.5203V22.0003C22.0001 20.8957 22.8955 20.0003 24.0001 20.0003Z" fill="#D85988"/>
<path fill-rule="evenodd" clip-rule="evenodd" d="M12.2112 6.10587C12.7052 5.11792 13.9066 4.71747 14.8945 5.21145L34.8945 15.2114C35.8825 15.7054 36.2829 16.9068 35.789 17.8947C35.295 18.8827 34.0936 19.2831 33.1057 18.7892L13.1057 8.78915C12.1177 8.29518 11.7173 7.09383 12.2112 6.10587Z" fill="#D85988"/>
</svg>
