<svg width="25" height="24" viewBox="0 0 25 24" fill="none" xmlns="http://www.w3.org/2000/svg">
<path d="M15.0889 15.6681C14.5818 16.3212 13.4952 16.5549 12.7233 16.5549C11.9514 16.5549 10.8649 16.3212 10.3578 15.6681C10.3294 15.6312 10.2956 15.6019 10.2584 15.582C10.2212 15.562 10.1813 15.5517 10.1411 15.5517C10.1008 15.5517 10.0609 15.562 10.0237 15.582C9.98648 15.6019 9.95271 15.6312 9.92431 15.6681C9.89574 15.7047 9.87306 15.7483 9.85759 15.7964C9.84211 15.8444 9.83415 15.8959 9.83415 15.9479C9.83415 15.9999 9.84211 16.0514 9.85759 16.0994C9.87306 16.1474 9.89574 16.191 9.92431 16.2277C10.7324 17.2562 12.2649 17.3337 12.7233 17.3337C13.1817 17.3337 14.7153 17.2562 15.5223 16.2131C15.5511 16.1764 15.5739 16.1327 15.5895 16.0845C15.6051 16.0364 15.6131 15.9847 15.6131 15.9325C15.6131 15.8804 15.6051 15.8287 15.5895 15.7805C15.5739 15.7324 15.5511 15.6887 15.5223 15.652C15.4622 15.5829 15.3839 15.5459 15.3034 15.5486C15.2228 15.5513 15.1461 15.5935 15.0889 15.6666V15.6681ZM11.3119 12.1938C11.3119 11.3522 10.78 10.667 10.1292 10.667C9.47724 10.667 8.94641 11.3537 8.94641 12.1938C8.94641 13.0353 9.47837 13.7205 10.1292 13.7205C10.7811 13.7205 11.3119 13.0339 11.3119 12.1938Z" fill="white"/>
<path d="M12.9464 0C6.32001 0 0.946411 5.3736 0.946411 12C0.946411 18.6264 6.32001 24 12.9464 24C19.5728 24 24.9464 18.6396 24.9464 12C24.9344 5.3736 19.5728 0 12.9464 0ZM19.9064 13.5996C19.9304 13.7652 19.9448 13.944 19.9448 14.124C19.9448 16.824 16.8104 18.9984 12.9464 18.9984C9.08241 18.9984 5.94801 16.8228 5.94801 14.124C5.94801 13.944 5.96121 13.7652 5.98641 13.5996C5.67664 13.463 5.41358 13.2388 5.22958 12.9546C5.04559 12.6703 4.94869 12.3386 4.95081 12C4.95161 11.6566 5.0531 11.321 5.2427 11.0347C5.43229 10.7485 5.70169 10.5241 6.01752 10.3893C6.33336 10.2546 6.68177 10.2154 7.01964 10.2767C7.35751 10.3379 7.66999 10.4969 7.91841 10.734C9.13401 9.8508 10.8104 9.3012 12.6776 9.2496C12.6776 9.2244 13.5608 5.0664 13.5608 5.0664C13.5608 4.9896 13.6112 4.9128 13.676 4.8744C13.7108 4.84989 13.7503 4.83268 13.7919 4.82381C13.8336 4.81494 13.8766 4.8146 13.9184 4.8228L16.8224 5.4504C17.0264 5.04 17.45 4.746 17.936 4.746C18.1009 4.74521 18.2643 4.7771 18.4168 4.83984C18.5693 4.90257 18.7079 4.99491 18.8245 5.11152C18.9411 5.22812 19.0334 5.36668 19.0962 5.51918C19.1589 5.67168 19.1908 5.8351 19.19 6C19.1908 6.1649 19.1589 6.32832 19.0962 6.48082C19.0334 6.63333 18.9411 6.77188 18.8245 6.88848C18.7079 7.00509 18.5693 7.09743 18.4168 7.16016C18.2643 7.2229 18.1009 7.2548 17.936 7.254C17.6155 7.25426 17.3073 7.13048 17.076 6.90857C16.8447 6.68667 16.7082 6.38387 16.6952 6.0636L14.0852 5.5008L13.292 9.2496C15.134 9.3132 16.784 9.876 17.9744 10.734C18.2201 10.4926 18.5318 10.3293 18.8702 10.2647C19.2086 10.2002 19.5585 10.2372 19.8758 10.3712C20.1932 10.5051 20.4638 10.7301 20.6535 11.0176C20.8432 11.3051 20.9436 11.6423 20.942 11.9868C20.9417 12.3265 20.844 12.659 20.6604 12.9449C20.4769 13.2308 20.2152 13.458 19.9064 13.5996Z" fill="white"/>
<path d="M15.6131 12C14.8781 12 14.2797 12.2998 14.2797 12.6667C14.2797 13.0335 14.8794 13.3333 15.6131 13.3333C16.348 13.3333 16.9464 13.0335 16.9464 12.6667C16.9414 12.4906 16.7994 12.3225 16.5504 12.198C16.3014 12.0735 15.9651 12.0025 15.6131 12Z" fill="white"/>
</svg>
