<svg width="25" height="24" viewBox="0 0 25 24" fill="none" xmlns="http://www.w3.org/2000/svg">
<path d="M20.9414 6.68799C21.8379 6.15208 22.5086 5.30823 22.8284 4.31399C21.9861 4.81379 21.0645 5.16587 20.1034 5.35499C18.771 3.94552 16.6599 3.60251 14.9498 4.51764C13.2397 5.43277 12.3539 7.37948 12.7874 9.26999C9.33704 9.09676 6.12239 7.4669 3.94343 4.78599C2.80627 6.74741 3.38738 9.25477 5.27143 10.516C4.59014 10.4941 3.92395 10.3096 3.32843 9.97799C3.32843 9.99599 3.32843 10.014 3.32843 10.032C3.32882 12.0751 4.7688 13.8351 6.77143 14.24C6.13949 14.4119 5.47663 14.4372 4.83343 14.314C5.39663 16.0613 7.00698 17.2583 8.84243 17.294C7.32226 18.4871 5.4449 19.1342 3.51243 19.131C3.1699 19.1315 2.82764 19.1118 2.48743 19.072C4.44982 20.333 6.7338 21.0023 9.06643 21C12.3117 21.0223 15.4305 19.7429 17.7252 17.448C20.0199 15.1531 21.299 12.0342 21.2764 8.78899C21.2764 8.60299 21.2721 8.41799 21.2634 8.23399C22.1039 7.62659 22.8292 6.87414 23.4054 6.01199C22.6224 6.35905 21.7919 6.58691 20.9414 6.68799Z" fill="white"/>
</svg>
