<svg width="24" height="16" viewBox="0 0 24 16" fill="none" xmlns="http://www.w3.org/2000/svg">
<path d="M22.6824 2.61616C22.5577 2.14769 22.3139 1.71948 21.9746 1.37321C21.6353 1.02693 21.2122 0.774391 20.7464 0.640157C18.9864 0.160157 11.9464 0.160156 11.9464 0.160156C11.9464 0.160156 4.93839 0.160156 3.14639 0.616156C2.67505 0.754073 2.24681 1.01023 1.90236 1.36028C1.55791 1.71033 1.30869 2.14265 1.17839 2.61616C0.869268 4.39374 0.724656 6.19603 0.746394 8.00016C0.734442 9.8053 0.889772 11.6077 1.21039 13.3842C1.33508 13.8526 1.57891 14.2808 1.91818 14.6271C2.25744 14.9734 2.68058 15.2259 3.14639 15.3602C4.92239 15.8402 11.9464 15.8402 11.9464 15.8402C11.9464 15.8402 18.9544 15.8402 20.7464 15.3842C21.2178 15.254 21.6471 15.0034 21.9922 14.6569C22.3373 14.3104 22.5862 13.88 22.7144 13.4082C23.0246 11.6226 23.1692 9.81228 23.1464 8.00016C23.1652 6.19475 23.0098 4.39173 22.6824 2.61616ZM9.7144 11.3602V4.64016L15.5464 8.00016L9.7144 11.3602Z" fill="white"/>
</svg>
