<svg width="25" height="20" viewBox="0 0 25 20" fill="none" xmlns="http://www.w3.org/2000/svg">
<path d="M21.2634 2.36993C19.7337 1.66805 18.0934 1.15094 16.3783 0.854756C16.3471 0.849046 16.3159 0.863326 16.2998 0.891896C16.0888 1.26712 15.8551 1.75662 15.6915 2.14136C13.8468 1.86519 12.0116 1.86519 10.2047 2.14136C10.0411 1.74806 9.79889 1.26712 9.58698 0.891896C9.57089 0.864276 9.53969 0.849996 9.50846 0.854756C7.79432 1.14999 6.15397 1.66711 4.62335 2.36993C4.61009 2.37565 4.59874 2.38518 4.5912 2.39755C1.4798 7.04591 0.627461 11.58 1.04559 16.0579C1.04748 16.0798 1.05978 16.1007 1.07681 16.1141C3.12962 17.6216 5.11812 18.5368 7.06969 19.1434C7.10092 19.153 7.13402 19.1415 7.15389 19.1158C7.61554 18.4854 8.02705 17.8207 8.37989 17.1216C8.40071 17.0807 8.38083 17.0321 8.33827 17.0159C7.68554 16.7683 7.06401 16.4664 6.46614 16.1236C6.41885 16.096 6.41506 16.0283 6.45857 15.996C6.58438 15.9017 6.71023 15.8036 6.83036 15.7045C6.8521 15.6865 6.88239 15.6826 6.90794 15.6941C10.8357 17.4873 15.0879 17.4873 18.9694 15.6941C18.9949 15.6817 19.0252 15.6855 19.0479 15.7036C19.168 15.8026 19.2939 15.9017 19.4206 15.996C19.4641 16.0283 19.4613 16.096 19.414 16.1236C18.8161 16.4731 18.1946 16.7683 17.5409 17.015C17.4984 17.0312 17.4794 17.0807 17.5002 17.1216C17.8607 17.8197 18.2722 18.4844 18.7253 19.1149C18.7442 19.1415 18.7783 19.153 18.8095 19.1434C20.7705 18.5368 22.759 17.6216 24.8118 16.1141C24.8298 16.1007 24.8412 16.0807 24.8431 16.0588C25.3435 10.8819 24.0049 6.38499 21.2946 2.3985C21.288 2.38518 21.2767 2.37565 21.2634 2.36993ZM8.96643 13.3313C7.78391 13.3313 6.80954 12.2457 6.80954 10.9124C6.80954 9.57913 7.76501 8.49352 8.96643 8.49352C10.1773 8.49352 11.1422 9.58862 11.1233 10.9124C11.1233 12.2457 10.1678 13.3313 8.96643 13.3313ZM16.9411 13.3313C15.7587 13.3313 14.7843 12.2457 14.7843 10.9124C14.7843 9.57913 15.7397 8.49352 16.9411 8.49352C18.152 8.49352 19.1169 9.58862 19.098 10.9124C19.098 12.2457 18.152 13.3313 16.9411 13.3313Z" fill="white"/>
</svg>
