<svg width="24" height="24" viewBox="0 0 24 24" fill="none" xmlns="http://www.w3.org/2000/svg">
<path opacity="0.4" d="M16.19 2H7.81C4.17 2 2 4.17 2 7.81V16.18C2 19.83 4.17 22 7.81 22H16.18C19.82 22 21.99 19.83 21.99 16.19V7.81C22 4.17 19.83 2 16.19 2Z" fill="#9B8BD8"/>
<path d="M13.06 12.0001L15.36 9.70011C15.65 9.41011 15.65 8.93011 15.36 8.64011C15.07 8.35011 14.59 8.35011 14.3 8.64011L12 10.9401L9.69998 8.64011C9.40998 8.35011 8.92999 8.35011 8.63999 8.64011C8.34999 8.93011 8.34999 9.41011 8.63999 9.70011L10.94 12.0001L8.63999 14.3001C8.34999 14.5901 8.34999 15.0701 8.63999 15.3601C8.78999 15.5101 8.97999 15.5801 9.16999 15.5801C9.35999 15.5801 9.54998 15.5101 9.69998 15.3601L12 13.0601L14.3 15.3601C14.45 15.5101 14.64 15.5801 14.83 15.5801C15.02 15.5801 15.21 15.5101 15.36 15.3601C15.65 15.0701 15.65 14.5901 15.36 14.3001L13.06 12.0001Z" fill="white"/>
</svg>
