<svg xmlns="http://www.w3.org/2000/svg" width="500" height="500" style="shape-rendering:geometricPrecision;text-rendering:geometricPrecision;image-rendering:optimizeQuality;fill-rule:evenodd;clip-rule:evenodd"><path style="opacity:1" d="M0 0h500v500H0V0Z"/><path style="opacity:1" fill="#fede2a" d="M156 84v8a401 401 0 0 0 1 40 71 71 0 0 0 9-11 71 71 0 0 0 8-12 391 391 0 0 0 22-31 7 7 0 0 1 4-3 342 342 0 0 1 37 0 4 4 0 0 1 3 3 22 22 0 0 1-3 5 36 36 0 0 0-6 8 252 252 0 0 0-26 33 4140 4140 0 0 0 45 96 4 4 0 0 1-2 2 840 840 0 0 1-41 1 9 9 0 0 1-7-3 76899 76899 0 0 1-14-33l-5-12a112 112 0 0 1-5-11l-2-1a165 165 0 0 0-17 19 382 382 0 0 0-2 38 4 4 0 0 1-1 2 164 164 0 0 1-25 1h-9l-9-2V77l2-2a420 420 0 0 1 41 0 11 11 0 0 1 2 9Z"/><path style="opacity:1" fill="#fddd2a" d="M308 84v89c1 8 4 14 12 18a11 11 0 0 0 7 2c12 1 20-4 24-15a2721 2721 0 0 0 2-101l2-2a289 289 0 0 1 34 0l1 2-1 104c-3 18-13 31-29 38a120 120 0 0 1-54 4 72 72 0 0 1-21-7 57 57 0 0 1-22-43V77l2-2h42a20 20 0 0 1 1 9Z"/><path style="opacity:1" fill="#7e6e15" d="M156 84c6-2 9 1 9 8h-9v-8Z"/><path style="opacity:1" fill="#7d6d15" d="m237 83 11 2c1 2 0 4-1 6l-2 2-14-2a36 36 0 0 1 6-8Z"/><path style="opacity:1" fill="#7f6f15" d="M308 84c7-2 10 1 9 8h-9v-8Z"/><path style="opacity:1" fill="#a6911c" d="M156 92h9c-1 9 0 19 1 29a71 71 0 0 1-9 11 401 401 0 0 1-1-40Z"/><path style="opacity:1" fill="#4d430c" d="M165 92c3-1 6 0 8 2l1 15a71 71 0 0 1-8 12c-1-10-2-20-1-29Z"/><path style="opacity:1" fill="#a48f1b" d="m231 91 14 2a1388 1388 0 0 1-29 35 12 12 0 0 0-2 5 4140 4140 0 0 0 45 96 4 4 0 0 1-2 2 840 840 0 0 1-41 1c-6-1-9-4-9-9l41-1a4 4 0 0 0 2-2 4140 4140 0 0 1-45-96 252 252 0 0 1 26-33Z"/><path style="opacity:1" fill="#4c420c" d="m247 91 9 2a5 5 0 0 1 0 5 1069 1069 0 0 0-34 43 11581 11581 0 0 0 44 92v6a334 334 0 0 1-44 0 12 12 0 0 1-6-7l41-1a4 4 0 0 0 2-2 4140 4140 0 0 1-45-96 12 12 0 0 1 2-5 1388 1388 0 0 0 29-35l2-2Z"/><path style="opacity:1" fill="#a7921c" d="M308 92h9v90a32 32 0 0 0 3 9c-8-4-11-10-12-18V92Z"/><path style="opacity:1" fill="#4e440d" d="M317 92c3-1 6 0 8 2a5230 5230 0 0 0 2 99l-7-2a32 32 0 0 1-3-9V92Z"/><path style="opacity:1" fill="#a6911c" d="m390 77 1 7v8h8v90c-1 22-11 37-30 46a115 115 0 0 1-62 2 99 99 0 0 1-12-5 32 32 0 0 1-10-9 72 72 0 0 0 21 7c18 3 36 1 54-4 16-7 26-20 29-38l1-104Z"/><path style="opacity:1" fill="#766813" d="M391 84c6-2 9 1 9 8a2026 2026 0 0 1-1 90V92h-8v-8Z"/><path style="opacity:1" fill="#4c420c" d="M400 92a15 15 0 0 1 7 1 1667 1667 0 0 1 0 100c-2 25-16 40-40 46a110 110 0 0 1-54-2 38 38 0 0 1-18-12 99 99 0 0 0 12 5c20 5 41 4 62-2 19-9 29-24 30-46a2026 2026 0 0 0 1-90Z"/><path style="opacity:1" fill="#a6911b" d="M181 175a4 4 0 0 0-4 2l-12 16a724 724 0 0 1-1 37 4 4 0 0 1-2 1l-33 1v-9l25-1a4 4 0 0 0 1-2 382 382 0 0 1 2-38 165 165 0 0 1 17-19l2 1a112 112 0 0 0 5 11Z"/><path style="opacity:1" fill="#4c420c" d="m181 175 5 12a78 78 0 0 0-12 14l-1 36-1 1a216 216 0 0 1-41 1 9 9 0 0 1-2-7l33-1a4 4 0 0 0 2-1 724 724 0 0 0 1-37l12-16a4 4 0 0 1 4-2Z"/><path style="opacity:1" fill="#807015" d="M120 223h9v9c-8 1-11-2-9-9Z"/><path style="opacity:1" fill="#fcdc2a" d="M158 256v108l9 1h58l2 10-1 22-1 1-96 1h-9c-4 0-7-1-9-3V249l3-3h42l2 10Z"/><path style="opacity:1" fill="#fddd2a" d="M344 256a5628 5628 0 0 1 48 138l-1 4-34 1h-6l-6-1a59 59 0 0 1-3-10 71 71 0 0 1-3-9 56 56 0 0 0-4-10 552 552 0 0 0-47 0 339 339 0 0 0-11 28 9 9 0 0 1-2 1 113 113 0 0 1-15 1h-15a7 7 0 0 1-7-2c0-5 1-9 3-13a10865 10865 0 0 1 48-135l3-3h45c4 2 6 5 7 10Z"/><path style="opacity:1" fill="#7d6d15" d="M158 256c7-2 10 1 9 9h-9v-9Z"/><path style="opacity:1" fill="#a7911c" d="M158 265h9v100l-9-1v-99Z"/><path style="opacity:1" fill="#4d430d" d="M167 265c3-1 6 0 8 2l1 98h-9V265Z"/><path style="opacity:1" fill="#a38e1b" d="M344 256a12 12 0 0 1 9 9 8548 8548 0 0 1 48 139l-1 4-39 1h-1a43 43 0 0 0-3-10l34-1 1-4a5628 5628 0 0 0-48-138Z"/><path style="opacity:1" fill="#4c420c" d="M353 265c4 1 7 3 8 8a6951 6951 0 0 1 49 140l-1 4a484 484 0 0 1-44 0 11 11 0 0 1-4-8l39-1 1-4a8548 8548 0 0 0-48-139Z"/><path style="opacity:1" fill="#a7921c" d="M318 310a129 129 0 0 0-9 24h15-27a308 308 0 0 1 13-39c0-2 1-2 2 0a134 134 0 0 0 6 15Z"/><path style="opacity:1" fill="#4f450d" d="M318 310a285 285 0 0 0 6 18 9 9 0 0 0-3 6h-12a129 129 0 0 1 9-24Z"/><path style="opacity:1" fill="#131003" d="M324 328v6h-3a9 9 0 0 1 3-6Z"/><path style="opacity:1" fill="#a7921c" d="M339 379h-42a703 703 0 0 0-11 28 148 148 0 0 1-29 2 43 43 0 0 0 3-10 113 113 0 0 0 15-1 9 9 0 0 0 2-1 339 339 0 0 1 11-28 552 552 0 0 1 47 0 56 56 0 0 1 4 10Z"/><path style="opacity:1" fill="#7c6c15" d="M228 375c6-1 9 2 8 9h-8v-9Z"/><path style="opacity:1" fill="#4e440d" d="M339 379a71 71 0 0 0 3 9h-36a778 778 0 0 1-12 29h-36c-3-3-3-5-1-8l29-2a703 703 0 0 1 11-28h42Z"/><path style="opacity:1" fill="#a5901b" d="M227 375h1v9h8l-1 23-1 1-104 1h-1v-10l96-1 1-1 1-22Z"/><path style="opacity:1" fill="#4d430d" d="M236 384h5a31 31 0 0 0-3 13 7 7 0 0 0 7 2 145 145 0 0 1-1 17l-1 1H132a11 11 0 0 1-2-8l104-1 1-1 1-23Z"/><path style="opacity:1" fill="#796a14" d="M120 399h9v10c-8 0-11-3-9-10Z"/><path style="opacity:1" fill="#7d6e15" d="M248 399h12a43 43 0 0 1-3 10c-9 1-12-2-9-10Z"/><path style="opacity:1" fill="#7c6c15" d="M351 399h6a43 43 0 0 1 3 10l-6-1a151 151 0 0 1-3-9Z"/></svg>